<svg width="23" height="17" viewBox="0 0 23 17" fill="none" xmlns="http://www.w3.org/2000/svg">
<path d="M15.0938 8.5C14.1702 8.5 13.2771 8.08762 12.5781 7.33922C11.8985 6.60924 11.4834 5.63578 11.4102 4.59898C11.332 3.49301 11.6694 2.47598 12.3598 1.73477C13.0503 0.993555 14.0156 0.59375 15.0938 0.59375C16.1642 0.59375 17.1323 1.00074 17.8205 1.74016C18.5155 2.48676 18.8537 3.50199 18.7756 4.59854C18.7005 5.63668 18.2859 6.60969 17.6076 7.33877C16.9104 8.08762 16.0178 8.5 15.0938 8.5ZM21.0158 16.4063H9.17216C8.98174 16.4073 8.79362 16.3646 8.62229 16.2815C8.45096 16.1984 8.30097 16.0771 8.18388 15.9269C8.05967 15.7641 7.97389 15.5754 7.93298 15.3747C7.89206 15.1741 7.89705 14.9668 7.94759 14.7684C8.32583 13.2496 9.2629 11.99 10.6573 11.1261C11.8949 10.3598 13.4703 9.9375 15.0938 9.9375C16.7491 9.9375 18.2832 10.3418 19.528 11.1077C20.9255 11.9671 21.8639 13.2339 22.2404 14.7711C22.2903 14.9697 22.2947 15.1769 22.2534 15.3775C22.212 15.578 22.1259 15.7666 22.0014 15.9292C21.8844 16.0786 21.7348 16.1994 21.5639 16.282C21.3931 16.3647 21.2056 16.4072 21.0158 16.4063ZM6.60353 8.67969C5.02272 8.67969 3.63284 7.20984 3.50392 5.40354C3.44013 4.47815 3.72853 3.62238 4.31251 2.99482C4.89021 2.37355 5.70509 2.03125 6.60353 2.03125C7.50196 2.03125 8.31056 2.37535 8.8914 3.00022C9.47987 3.63272 9.76737 4.48668 9.69999 5.40443C9.57106 7.21029 8.18163 8.67969 6.60353 8.67969ZM9.5531 10.0925C8.76292 9.70615 7.73735 9.51299 6.60397 9.51299C5.28058 9.51299 3.99536 9.85799 2.98462 10.4842C1.83866 11.1953 1.0678 12.2308 0.756494 13.4809C0.710937 13.6608 0.706628 13.8486 0.74389 14.0303C0.781152 14.212 0.85902 14.3829 0.97167 14.5303C1.07856 14.6675 1.2155 14.7784 1.37195 14.8544C1.52841 14.9304 1.70021 14.9695 1.87415 14.9688H6.86048C6.94464 14.9687 7.02613 14.9392 7.09073 14.8853C7.15534 14.8313 7.19897 14.7564 7.21401 14.6736C7.21895 14.6453 7.22524 14.617 7.23243 14.5892C7.61337 13.0591 8.50597 11.7663 9.82487 10.8238C9.87338 10.7888 9.9124 10.7423 9.93839 10.6885C9.96438 10.6346 9.97652 10.5751 9.97371 10.5154C9.9709 10.4557 9.95323 10.3976 9.92229 10.3464C9.89136 10.2952 9.84815 10.2526 9.79657 10.2223C9.72604 10.181 9.64519 10.1374 9.5531 10.0925Z" fill="#3699FF"/>
</svg>
