<svg width="21" height="19" viewBox="0 0 21 19" fill="none" xmlns="http://www.w3.org/2000/svg">
<path d="M20.121 8.26601L20.1141 8.26296L1.53603 0.557344C1.37977 0.491941 1.20973 0.466291 1.04113 0.482688C0.872527 0.499085 0.710619 0.557018 0.569888 0.651304C0.421202 0.748731 0.299071 0.881595 0.214481 1.03794C0.129892 1.19429 0.0854989 1.36921 0.0852969 1.54697V6.4751C0.0853795 6.71812 0.170235 6.95349 0.325237 7.14065C0.480239 7.32781 0.695678 7.45504 0.93442 7.5004L11.0669 9.37395C11.1067 9.3815 11.1427 9.40271 11.1685 9.43392C11.1944 9.46513 11.2085 9.50438 11.2085 9.54491C11.2085 9.58543 11.1944 9.62469 11.1685 9.6559C11.1427 9.68711 11.1067 9.70832 11.0669 9.71587L0.934855 11.5894C0.696179 11.6347 0.480753 11.7617 0.325682 11.9487C0.17061 12.1357 0.0856011 12.3709 0.0852969 12.6138V17.5428C0.0851813 17.7126 0.127211 17.8797 0.207614 18.0292C0.288017 18.1787 0.404278 18.3059 0.545963 18.3994C0.716396 18.5126 0.916413 18.5731 1.12104 18.5734C1.26329 18.5732 1.40409 18.5447 1.53516 18.4894L20.1128 10.8277L20.121 10.8238C20.3711 10.7163 20.5842 10.5379 20.7339 10.3106C20.8836 10.0833 20.9634 9.81709 20.9634 9.54491C20.9634 9.27273 20.8836 9.00651 20.7339 8.77921C20.5842 8.5519 20.3711 8.37347 20.121 8.26601Z" fill="#A6A5A5"/>
</svg>
